<svg width="48" height="41" viewBox="0 0 48 41" fill="none" xmlns="http://www.w3.org/2000/svg">
<g clip-path="url(#clip0)">
<path d="M48 0H0V41H48V0Z" fill="#D7E3F4"/>
<path opacity="0.7757" d="M13.9313 32.1713C13.9313 32.1713 6.93915 33.5526 1.52477 35.6129C0.787479 35.8935 0.318737 35.9392 -0.0261019 36.3611C-0.0150099 37.5314 -0.0871994 41.1198 -0.000713594 41.056L48.0501 41.0187C48.052 39.9151 48.1093 36.285 48.0501 35.7442C47.6606 35.3338 47.5925 35.3137 47.0841 35.0896C46.5757 34.865 31.8298 31.5732 31.8298 31.5732L13.9313 32.1713Z" fill="#87AADE"/>
<path d="M34.0795 22.3067C34.1027 22.2601 34.1301 22.2435 34.1495 22.2001C34.1821 22.1255 34.1941 22.0468 34.2126 21.9683C34.2379 21.861 34.2667 21.7534 34.2914 21.6437C34.3177 21.5283 34.3378 21.4075 34.3703 21.296C34.4027 21.1845 34.4447 21.0819 34.4963 20.983C34.5705 20.8402 34.6324 20.7119 34.6854 20.5889C34.7703 20.3916 34.8504 20.1549 34.9059 19.9051C34.9477 19.7202 34.9854 19.5229 34.9375 19.3255C34.9106 19.2026 34.8967 19.0952 34.7412 19.0304C34.6833 19.0085 34.6132 18.9958 34.5521 18.9956C34.4503 18.9953 34.3573 19.0149 34.2685 19.042C34.1552 19.0758 34.0451 19.132 33.9534 19.1811C33.876 19.2226 33.7596 19.307 33.6777 19.3399L33.4556 19.3618C33.474 19.324 33.4333 19.2495 33.4466 19.2042C33.6225 18.5805 33.9338 16.466 33.9198 15.4308C33.8876 13.0711 34.8481 12.1328 32.5296 10.0712C31.9468 9.5529 31.0599 8.94505 30.2987 8.5586C30.6996 8.63557 31.0111 8.66986 31.4614 8.83331C30.4711 8.24464 29.5922 7.92339 28.8492 7.64176C29.2068 7.68236 29.6633 7.7675 30.0356 7.811C27.6346 6.93783 25.9988 6.83529 24.4284 6.84317L24.0313 6.87448C23.3404 6.87781 23.0583 6.90514 22.563 6.98228C21.0149 6.93133 18.8412 6.7903 16.6533 7.57109C16.9629 7.55833 17.2253 7.54971 17.4726 7.54789C16.4928 7.88387 15.4016 8.31746 14.1782 9.29117C14.4551 9.17941 14.6978 9.08283 14.9345 9.0014C14.0001 9.65061 12.9613 10.6785 12.4609 11.6187C11.9122 12.6496 12.0329 17.1937 12.2466 17.9823C12.4437 18.7096 12.2545 19.1817 12.2333 19.2449C12.2254 19.2416 12.2254 19.2359 12.2176 19.2333C12.0765 19.1834 11.8567 19.1271 11.687 19.183C11.5185 19.2486 11.4574 19.3646 11.4244 19.488C11.3644 19.692 11.4323 19.8844 11.4875 20.0675C11.5755 20.3731 11.6803 20.6706 11.7763 20.9021C11.8113 20.9865 11.855 21.0712 11.8971 21.1687C11.9389 21.2647 11.9764 21.3673 11.9969 21.4778C12.0175 21.5883 12.026 21.7133 12.0389 21.8294C12.0505 21.9363 12.0468 22.0326 12.0598 22.1385C12.0688 22.2161 12.0711 22.2948 12.0965 22.3703C12.1245 22.4493 12.1674 22.5149 12.2217 22.5775C12.2262 22.5824 12.2334 22.5959 12.2374 22.6007C12.2487 22.6649 12.3406 22.7555 12.3422 22.8958C12.3433 23.0044 12.3946 23.1328 12.3792 23.2587C12.3641 23.3845 12.3395 23.5079 12.3162 23.626C12.299 23.7112 12.2857 23.7925 12.2823 23.8659C12.2789 23.9181 12.2879 23.9801 12.298 24.0397C12.3205 24.1784 12.3809 24.3063 12.4956 24.4347C12.5628 24.5111 12.525 24.5157 12.6361 24.5557C12.7312 24.5891 12.817 24.6129 12.91 24.6216C13.031 24.6332 13.1533 24.6452 13.2518 24.668C13.3865 24.6993 13.4858 24.7211 13.5914 24.7822C13.7375 24.8665 13.8612 24.9248 14.0716 25.0383C14.0883 25.0773 14.123 25.1076 14.1403 25.1497C14.1989 25.2932 14.2899 25.4699 14.3923 25.6365C14.5483 25.8898 14.7687 26.1766 14.9756 26.4404L14.9835 26.5637C15.769 29.1332 15.2077 31.2386 13.6935 32.8408C16.3044 36.7705 20.415 36.4153 24.0436 36.5459C27.6024 36.6739 32.9937 34.3809 32.6308 32.8176C31.4103 31.2954 31.1702 29.1567 31.5061 27.2717C31.6007 26.7583 31.6746 26.5562 31.8431 26.2941C31.9977 26.0419 32.1012 25.901 32.2466 25.6794C32.4473 25.3726 32.5553 25.0606 32.6247 24.7985C32.6348 24.7614 32.6472 24.7149 32.6678 24.668C32.7292 24.636 32.8061 24.6072 32.8429 24.5898C32.9513 24.5385 33.1115 24.4687 33.2998 24.416C33.3555 24.4006 33.4131 24.3862 33.4731 24.358C33.5374 24.3268 33.5888 24.2759 33.6306 24.2305C33.7454 24.1079 33.8199 23.9684 33.8512 23.8248C33.8805 23.6875 33.9128 23.5686 33.9069 23.4637C33.9064 23.4514 33.9074 23.4417 33.9069 23.4289C33.8991 23.2931 33.847 23.1186 33.8668 22.9537C33.8863 22.7906 33.933 22.6291 33.9772 22.5132C34.0213 22.3974 34.0511 22.3661 34.0805 22.3069L34.0805 22.3069V22.3069H34.0804H34.0805H34.0805L34.0795 22.3067Z" fill="#87AADE"/>
<path d="M24.343 6.75407C23.6521 6.7574 23.0579 6.80436 22.5627 6.88157C20.9082 6.73274 18.3003 6.79604 16.2134 7.66977C16.523 7.65701 16.7853 7.64832 17.0326 7.64658C16.0528 7.98255 14.9317 8.56224 13.7083 9.5359C13.9852 9.42415 14.2436 9.32756 14.4803 9.24612C13.546 9.89534 12.7907 10.6821 12.2903 11.6223C11.7417 12.6532 11.9191 17.1974 12.1328 17.986C12.3299 18.7133 12.2013 19.1398 12.1801 19.203C12.1722 19.1997 12.1722 19.1942 12.1643 19.1914C12.0232 19.1415 11.8299 19.1008 11.6602 19.1566C11.4917 19.2222 11.4254 19.3577 11.3923 19.4812C11.3323 19.6851 11.4002 19.8892 11.4554 20.0723C11.5435 20.3779 11.6588 20.6638 11.7548 20.8953C11.7898 20.9796 11.823 21.076 11.865 21.1734C11.9068 21.2695 11.939 21.3759 11.9595 21.4864C11.9801 21.5969 11.9939 21.7065 12.0068 21.8225C12.0184 21.9294 12.0256 22.0412 12.0383 22.1471C12.0473 22.2247 12.0596 22.3034 12.0856 22.3789C12.1135 22.458 12.1573 22.525 12.2116 22.5876C12.2162 22.5925 12.2231 22.5942 12.2274 22.5992C12.2387 22.6634 12.3086 22.7602 12.3104 22.9005C12.3115 23.0092 12.3579 23.134 12.3426 23.2598C12.3275 23.3857 12.3028 23.5127 12.2795 23.6308C12.2624 23.716 12.2514 23.8008 12.248 23.8742C12.2446 23.9264 12.2548 23.9768 12.2638 24.0364C12.2863 24.1751 12.3128 24.3051 12.4274 24.4335C12.4947 24.5099 12.5622 24.5437 12.6733 24.5837C12.7684 24.617 12.9174 24.6531 13.0104 24.6618C13.1314 24.6733 13.2585 24.6853 13.357 24.7082C13.4918 24.7394 13.5856 24.7787 13.6564 24.8125C13.5894 24.7751 13.4875 24.7232 13.357 24.685C13.2576 24.6562 13.1463 24.6327 13.0262 24.6154C12.9352 24.6018 12.7825 24.5699 12.7048 24.5373C12.6135 24.5007 12.5641 24.4699 12.5062 24.3987C12.4081 24.2758 12.3906 24.1632 12.3741 24.0364C12.3621 23.9495 12.3662 23.8558 12.3741 23.7814C12.3786 23.7369 12.3831 23.6947 12.3898 23.6423C12.4057 23.5299 12.4177 23.3982 12.4214 23.2714C12.4248 23.1447 12.3714 23.0235 12.3576 22.9121C12.342 22.7847 12.2628 22.691 12.2431 22.6223C12.2895 22.672 12.3382 22.7196 12.3849 22.7614C12.5222 22.8849 12.6285 22.985 12.7 23.0628C12.7715 23.1406 12.8103 23.1903 12.8103 23.1903C12.8103 23.1903 12.7821 23.1431 12.7157 23.0628C12.6494 22.9824 12.5469 22.8668 12.4163 22.7382C12.3636 22.6861 12.2924 22.638 12.243 22.576C12.1937 22.5139 12.1536 22.4415 12.1328 22.3673C12.1122 22.2962 12.1067 22.2141 12.1013 22.1355C12.0934 22.0307 12.0922 21.9311 12.0855 21.8225C12.0787 21.7088 12.0707 21.5886 12.054 21.4748C12.0373 21.3611 12.0174 21.2562 11.9751 21.1503C11.9109 20.9899 11.8545 20.8315 11.8018 20.6982C11.7268 20.5085 11.6386 20.2941 11.5655 20.0607C11.549 20.0065 11.5349 19.9536 11.5182 19.8984C11.5639 19.9843 11.6205 20.0269 11.7073 20.0955C11.9391 20.2786 12.1011 20.1071 12.1011 20.1071C12.2902 20.2146 12.613 20.5547 13.1725 21.4632C13.1302 21.4015 13.0573 21.3778 12.9834 21.3473C12.8484 21.2916 12.5813 21.3861 12.5581 21.5328C12.5178 21.7877 12.7926 22.4829 12.8259 22.3442C12.8509 22.24 12.675 21.891 12.7786 21.7299C12.8325 21.646 13.0512 21.6238 13.2197 21.6719C13.2642 21.6846 13.2479 21.5924 13.2197 21.5328C13.219 21.5303 13.2205 21.5229 13.2197 21.5212C12.7882 20.6737 12.3887 20.0817 12.0539 19.7941C11.8556 19.6238 11.6467 19.5344 11.5497 19.5391C11.5104 19.5416 11.4858 19.5906 11.4709 19.6318C11.4704 19.5872 11.4743 19.5482 11.4867 19.5043C11.5215 19.388 11.5745 19.2629 11.7072 19.2146C11.8325 19.1632 11.9964 19.1909 12.1326 19.2378C12.7202 19.4395 12.9032 19.7376 13.1725 20.1013C13.3049 20.2802 13.5863 20.8594 13.7475 21.3357C13.6661 20.8247 13.4699 20.3892 13.4009 20.2346L14.3068 20.2462C14.3147 20.3786 14.3292 20.5091 14.3699 20.6403C14.4337 20.8497 14.5712 21.0588 14.7953 21.2082C15.0964 21.4038 15.4827 21.4841 15.8509 21.5559C16.4483 21.6751 17.0623 21.7289 17.6785 21.7298C18.4892 21.7314 19.3035 21.6877 20.1047 21.5907C20.389 21.5563 20.6761 21.5143 20.9555 21.4516C21.0492 21.4306 21.1468 21.4144 21.2391 21.382C21.2954 21.3638 21.3586 21.3344 21.4124 21.2893C21.5604 21.1544 21.6285 20.9906 21.6802 20.8372C21.7426 20.6591 21.7767 20.481 21.822 20.304C21.8534 20.1799 21.8475 20.0424 21.8063 19.9215C22.2763 19.6622 22.848 19.632 23.1297 19.6318C23.4229 19.6315 23.9138 19.7106 24.3743 19.8868C24.3751 19.9367 24.3777 19.9881 24.3901 20.0375C24.4385 20.2139 24.4977 20.3932 24.5634 20.5706C24.6179 20.7235 24.6808 20.8893 24.8312 21.0227C24.8858 21.0673 24.9479 21.0977 25.0045 21.1154C25.0974 21.1469 25.1941 21.165 25.2881 21.1849C25.5686 21.2449 25.854 21.2809 26.1389 21.3124C26.9418 21.4016 27.7545 21.4376 28.5652 21.4283C29.1812 21.4217 29.7975 21.3679 30.3928 21.2429C30.7596 21.1675 31.1508 21.0705 31.4483 20.872C31.6697 20.7204 31.7979 20.5141 31.858 20.304C31.8966 20.1713 31.9165 20.0321 31.921 19.8983L33.1648 19.7013C33.0229 19.9047 32.9005 20.217 32.7875 20.5474C32.9489 20.226 33.2068 19.8355 33.3705 19.6318C33.4114 19.5808 33.5163 19.4595 33.6226 19.3884C33.7292 19.3174 33.8501 19.2468 33.9849 19.1797C34.0778 19.1337 34.1781 19.0922 34.2843 19.0638C34.4238 19.029 34.5828 18.9882 34.6939 19.0406C34.7673 19.0685 34.8212 19.1253 34.8515 19.1913C34.8195 19.18 34.7744 19.1791 34.7254 19.1797C34.6102 19.1814 34.4431 19.2182 34.2528 19.3304C33.8646 19.5592 33.5218 20.0637 32.9924 21.3009C32.9845 21.3194 32.9845 21.3399 32.9766 21.3589C32.9698 21.3925 32.9777 21.4361 33.0081 21.4284C33.2845 21.3571 33.4935 21.4259 33.528 21.5907C33.5646 21.7651 33.2686 22.0739 33.339 22.1123C33.4112 22.1518 33.51 21.9857 33.5911 21.8457C33.6829 21.6872 33.758 21.5454 33.7486 21.4169C33.7262 21.1112 33.4106 20.9548 33.1499 21.1387C33.7572 20.0044 34.0273 19.7532 34.2213 19.655C34.2213 19.655 34.2999 19.7929 34.5837 19.655C34.709 19.5941 34.839 19.5214 34.8988 19.4232C34.9116 19.5782 34.8731 19.7331 34.8357 19.8868C34.7586 20.1992 34.6442 20.4865 34.5363 20.7214C34.5034 20.7932 34.466 20.8716 34.4261 20.9532C34.3766 21.055 34.3451 21.1628 34.3159 21.2778C34.2866 21.3928 34.2581 21.5184 34.237 21.6371C34.2173 21.7472 34.2094 21.8537 34.1897 21.9616C34.1751 22.0408 34.1538 22.1221 34.1267 22.1935C34.1004 22.2663 34.0493 22.3229 33.9849 22.3789C33.9205 22.4349 33.8468 22.495 33.7801 22.5412C33.6984 22.597 33.6231 22.643 33.5595 22.6919C33.4959 22.7409 33.4426 22.7808 33.4019 22.8194C33.4439 22.7838 33.5119 22.7478 33.5752 22.7035C33.6416 22.657 33.7106 22.6063 33.7958 22.5528C33.8654 22.5094 33.9464 22.4586 34.0164 22.4021C34.0864 22.3457 34.1536 22.2855 34.1897 22.2051C34.2222 22.1304 34.2343 22.0517 34.2528 21.9732C34.2781 21.8659 34.3068 21.7583 34.3316 21.6487C34.3578 21.5332 34.378 21.4125 34.4104 21.301C34.4428 21.1894 34.4848 21.0869 34.5364 20.988C34.6107 20.8452 34.6726 20.7053 34.7255 20.5823C34.8104 20.385 34.8906 20.1483 34.9461 19.8984C34.9879 19.7136 35.0256 19.5163 34.9776 19.3189C34.9507 19.196 34.8968 19.0591 34.7413 18.9943C34.6834 18.9724 34.6133 18.9597 34.5522 18.9595C34.4504 18.9592 34.3574 18.9904 34.2686 19.0175C34.1553 19.0513 34.0452 19.0959 33.9535 19.145C33.8761 19.1865 33.8164 19.2292 33.7487 19.2725L33.5124 19.2957C33.5308 19.2578 33.5469 19.2134 33.5597 19.1682C33.7356 18.5444 34.204 16.471 34.1898 15.4358C34.1578 13.0761 34.9328 12.0961 32.6143 10.0343C32.0314 9.51598 31.3432 9.05304 30.582 8.66659C30.9828 8.74355 31.4078 8.86246 31.8581 9.02591C30.8678 8.43724 30.0172 8.03252 29.2742 7.7509C29.6318 7.79149 29.989 7.8349 30.3613 7.8784C27.9603 7.00524 25.9133 6.74621 24.3429 6.75405H24.3429L24.343 6.75407ZM28.0612 11.0775C28.8994 11.0781 29.5851 11.2094 29.9991 11.6107C31.2034 12.7781 31.5397 13.6356 31.6849 14.6244C31.8301 15.6132 31.8013 16.3373 32.2678 16.8846C32.7017 17.3937 32.7956 18.9264 32.7247 19.3535L31.7952 19.4231C31.7493 19.3642 31.7047 19.3188 31.6376 19.2724C31.4336 19.1323 31.1755 19.0434 30.9286 18.971C30.5053 18.8458 30.0501 18.7896 29.6052 18.7508C29.2249 18.7174 28.853 18.6972 28.4708 18.6928C28.1679 18.6895 27.8547 18.7057 27.5571 18.7276C27.1956 18.754 26.8437 18.7877 26.4857 18.8319C26.1553 18.8728 25.8191 18.9188 25.4932 18.9826C25.3677 19.0071 25.2389 19.0413 25.1151 19.0753C25.0299 19.0983 24.9462 19.1257 24.863 19.1681C24.6587 19.274 24.5117 19.4225 24.4376 19.5969C24.418 19.6429 24.4002 19.6881 24.3903 19.736C24.0134 19.5961 23.4908 19.5138 23.0827 19.5158C22.6603 19.5183 22.0354 19.632 21.7435 19.7824C21.6586 19.6422 21.5229 19.5104 21.3496 19.4231C21.2657 19.3816 21.1673 19.3641 21.0818 19.342C20.9573 19.3091 20.8295 19.2841 20.7037 19.2609C20.3766 19.2002 20.058 19.1478 19.7269 19.1102C19.3681 19.0694 19.0017 19.0403 18.6398 19.0174C18.3417 18.9985 18.0446 18.9879 17.7417 18.9942C17.3596 19.0025 16.9713 19.0151 16.5916 19.0522C16.1474 19.0953 15.705 19.1663 15.284 19.2956C15.0384 19.3705 14.7765 19.4549 14.575 19.597C14.4464 19.6883 14.3601 19.8037 14.3229 19.9332L13.7715 19.91C13.6427 19.6444 13.2705 18.8262 13.3622 18.3688C13.4518 17.9201 13.8743 17.9163 13.9293 17.2676C13.9844 16.619 13.7707 14.2367 14.0396 13.5701C14.3085 12.9035 15.5006 11.5466 16.5604 11.3099C18.3928 10.9006 19.8889 11.6901 22.563 11.6113C24.3179 11.5595 26.4612 11.0765 28.0616 11.0781L28.0615 11.0781L28.0612 11.0775ZM28.0142 18.8092C28.1617 18.8026 28.3087 18.8067 28.4553 18.8092C28.8329 18.8134 29.2154 18.8226 29.5897 18.8556C30.029 18.8945 30.4632 18.9558 30.8658 19.0758C31.1063 19.1482 31.3492 19.2289 31.5275 19.354C31.6674 19.4514 31.7609 19.5868 31.7638 19.7249C31.7695 19.9143 31.7537 20.1006 31.7008 20.2813C31.6425 20.4752 31.5306 20.6633 31.3384 20.7913C31.0775 20.9702 30.7238 21.0611 30.3616 21.139C29.7824 21.261 29.1709 21.3058 28.5655 21.3129C27.7622 21.322 26.9641 21.2967 26.1708 21.2086C25.8888 21.1772 25.6057 21.1391 25.3358 21.0811C25.2451 21.0615 25.1497 21.0395 25.0679 21.0116C25.0152 20.9921 24.9652 20.9766 24.9419 20.9536C24.8157 20.8471 24.7635 20.6985 24.7056 20.5479C24.6977 20.5274 24.6966 20.4989 24.6899 20.4783C24.7095 20.4373 24.7026 20.369 24.6899 20.2812C24.7738 20.2498 24.8212 20.1783 24.8002 20.1074C24.7789 20.0355 24.6911 19.9816 24.5954 19.9799C24.5729 19.9342 24.5566 19.8936 24.5323 19.864C24.5324 19.8557 24.5318 19.8491 24.5323 19.8408V19.806C24.5391 19.7467 24.5556 19.689 24.5796 19.6321C24.6438 19.4811 24.7826 19.3512 24.9577 19.2612C25.0208 19.228 25.0961 19.2032 25.1783 19.1801C25.2951 19.1479 25.4178 19.1231 25.5407 19.099C25.8597 19.0364 26.1739 18.9889 26.5017 18.9483C26.8565 18.9044 27.2153 18.8701 27.5731 18.844C27.7209 18.8332 27.8667 18.8161 28.0142 18.8092V18.8092L28.0142 18.8092ZM17.7421 19.099C17.8154 19.0973 17.8891 19.0984 17.9626 19.099C18.1832 19.1015 18.4023 19.1199 18.6243 19.1338C18.9825 19.1564 19.3401 19.1861 19.6957 19.2265C20.0242 19.2639 20.3523 19.3061 20.6725 19.3656C20.7958 19.3885 20.9175 19.4156 21.0348 19.4467C21.1175 19.469 21.1918 19.4953 21.2554 19.5278C21.4321 19.6161 21.5666 19.7483 21.6335 19.8987C21.6669 19.9743 21.6939 20.0516 21.6966 20.1306C21.673 20.1604 21.6394 20.2007 21.6178 20.2465C21.521 20.249 21.4331 20.3012 21.413 20.374C21.3935 20.4441 21.4564 20.505 21.539 20.5362C21.5275 20.6249 21.5345 20.7038 21.5548 20.7449C21.548 20.7662 21.5307 20.7816 21.5232 20.8029C21.4681 20.9541 21.4112 21.1124 21.2869 21.2201C21.264 21.2434 21.2289 21.258 21.1767 21.2781C21.0955 21.3069 20.9992 21.3273 20.9088 21.3477C20.6399 21.4084 20.371 21.441 20.0895 21.4752C19.2979 21.5712 18.4825 21.6156 17.679 21.6143C17.0736 21.6135 16.48 21.5683 15.8987 21.452C15.535 21.3776 15.1544 21.2923 14.8903 21.1159C14.6958 20.9898 14.5897 20.8108 14.528 20.6175C14.4713 20.4373 14.4624 20.239 14.4649 20.0495C14.4654 19.9114 14.5474 19.7774 14.6855 19.6786C14.8616 19.5518 15.0923 19.4751 15.3314 19.4004C15.7318 19.2765 16.169 19.2119 16.6076 19.1686C16.9812 19.132 17.3644 19.1071 17.7419 19.099L17.7419 19.099L17.7421 19.099Z" fill="black"/>
<path d="M19.0426 28.6927C19.0426 28.6927 20.8223 30.7689 23.4155 30.825C26.0087 30.8811 28.5511 28.6366 28.5511 28.6366C28.5511 28.6366 26.5934 30.956 23.7206 30.956C20.8477 30.956 19.0426 28.6927 19.0426 28.6927Z" fill="#343C82"/>
</g>
<defs>
<clipPath id="clip0">
<rect width="48" height="41" rx="20.5" fill="white"/>
</clipPath>
</defs>
</svg>
